<?xml version="1.0" encoding="utf-8"?>
<svg width="446.61194px" height="439.76517px" viewBox="0 0 446.61194 439.76517" version="1.1" xmlns:xlink="http://www.w3.org/1999/xlink" xmlns="http://www.w3.org/2000/svg">
  <g id="freepik--background-simple--inject-39" transform="translate(26.89032 23.99997)">
    <path d="M445.11 214.11C440.18 255.91 421.11 304.51 382.97 326.84C325.38 360.58 330.2 412.48 217.78 435.04C201.383 438.411 184.668 439.987 167.93 439.74C159.742 439.598 151.572 438.93 143.47 437.74C72.0197 427.3 23.9397 377.64 6.29968 317.74C-16.9503 238.85 29.3997 187.24 60.1097 156.14C90.8197 125.04 113.34 28.14 223.68 5.08003C240.513 1.50013 257.703 -0.130604 274.91 0.220058C314.17 1.22006 356.99 14.0701 386.62 40.9801C388.84 42.9801 391.003 45.0734 393.11 47.2601C434.31 89.53 451.81 157.12 445.11 214.11L445.11 214.11Z" id="Фигура" fill="#b2e9c1" stroke="none" />
    <path d="M445.219 213.937C440.289 255.737 421.219 304.337 383.079 326.667C325.489 360.407 330.309 412.307 217.889 434.867C201.493 438.238 184.777 439.814 168.04 439.567C159.852 439.425 151.681 438.757 143.579 437.567C72.1294 427.127 24.0494 377.467 6.40939 317.567C-16.8406 238.677 29.5094 187.067 60.2194 155.967C90.9294 124.867 113.449 27.9665 223.789 4.90654C240.623 1.32664 257.813 -0.304096 275.019 0.046566C314.279 1.04657 357.099 13.8966 386.729 40.8066C388.949 42.8066 391.113 44.8999 393.219 47.0866C434.419 89.3565 451.919 156.947 445.219 213.937L445.219 213.937Z" id="Фигура" fill="#b2e9c1" stroke="none" />
  </g>
</svg>